<?xml version="1.0" encoding="UTF-8"?>
<svg id="Capa_2" data-name="Capa 2" xmlns="http://www.w3.org/2000/svg" viewBox="0 0 1159.68 493.28">
  <defs>
    <style>
      .cls-1 {
        fill: #310448;
        stroke-width: 0px;
      }
    </style>
  </defs>
  <g id="Capa_1-2" data-name="Capa 1">
    <g>
      <path class="cls-1" d="m126.06,355.98c-37.12.01-73.5-.07-110.53.03-6.06.02-11.4-1.23-14.16-7.11-2.76-5.86-1.07-11.02,2.87-16.09,23.18-29.77,46.17-59.69,69.49-89.9C49.93,210.94,23.23,180.83.74,148.07c-3.01-8.82,3.45-16.83,13.56-16.9,18.27-.12,36.55-.05,54.82-.07,19.5,0,38.52-.04,58.09-.04-6.04-13.78-11.37-26.03-17.58-39.36-5.62-12,.29-21.71,13.68-21.81,67.44-.13,134.7-.06,202.16-.18-4.77-9.43-9.11-18.07-13.5-26.67-3.56-6.99-7.31-13.89-10.76-20.94-5.69-11.64.88-22,13.85-22,180.01.06,360.02-.26,540.02,0,11.89.27,18.43,10.75,13.27,21.5-7.6,15.83-15.38,31.56-23.3,47.77,64.48,1.59,129.18-.36,193.71.6,10.48,1.2,15.93,11.22,11.39,20.8-6.2,13.08-12.36,26.18-18.87,39.99,37.68.83,75.23.17,112.9.33,6.14-.01,11.2,1.58,14.03,7.37,2.76,5.64.84,10.42-2.84,15.09-23.32,29.74-46.66,59.16-69.72,89.13,23.28,30.19,46.56,60.17,70.02,90.18,3.79,4.84,5.29,10.06,2.73,15.73-2.65,5.87-7.88,7.46-13.98,7.45-37.28-.06-74.17,0-111.5,0,5.36,13.51,11.28,26.05,16.86,39.37,5.36,12.64-.74,21.72-14.6,21.75-53.79,1.83-109.72-7.23-160.02,16.32-184.52,78.92-398.13,79.46-583.54,3.06-19.49-7.8-38.99-15.71-60.06-18.4-35.57-2.24-71.39-.82-107.02-.81-15.32.28-20.58-12.29-15.05-22.86,6.5-12.74,11.16-25.05,16.57-38.51Zm7.48,38.47c48.07,1.89,97.76-6.62,143.42,11.92,103.34,41.13,213.1,67.03,324.87,62.99,91.72-1.85,181.99-23.18,266.55-58.14,49.68-22.67,104.09-15.7,157.14-16.81-5.93-13.48-10.84-26.6-17.36-38.87-5.54-10.42-.18-22.39,13.66-22.08,35.41.78,70.51.15,105.98.2-20.42-27.36-41.63-53.3-62.52-80.21-6.77-8.59-6.95-12.6-.22-21.2,20.64-26.53,41.16-52.1,61.66-78.88-36.39-.01-71.16.07-107.33.01-12.4-.02-18.28-9.11-13.17-20.41,6.34-13.98,12.77-26.64,18.9-40.96-64.66,0-128.91.01-193.52,0-12.37,0-18.28-9.33-12.87-20.42,7.71-16.44,16.56-32.36,23.7-49.03H326.49c8.15,16.86,16.9,33.01,25.29,49.7,4.98,9.75-.8,19.5-11.69,19.75-68.76.02-137.43-.01-206.2,0,5.71,13.82,12.09,26.75,17.95,40.43,5.38,12.31-.47,20.96-13.98,20.97-35.14,0-69.96,0-105.14,0,19.94,27.47,41.5,53.44,62.16,80.36,5.25,6.69,5.5,11.78.33,18.4-21.53,27.57-41.9,53.73-63.64,81.56,36.13,0,71.55-.05,107.59-.07,11.53.17,17.29,8.96,12.66,19.63-5.82,13.42-11.86,26.75-18.27,41.15Z"/>
      <path class="cls-1" d="m241.29,126.76c34.05,1.22,74.08-7.88,100.09,20.07,24.04,24.82,25.1,83.71-22.38,102.73-19.35,7.75-39.27,7.71-59.44,3.96-8.94-1.66-9.26-1.29-9.31,7.9-.08,14.68-.12,29.37-.09,44.05-.24,11.54,3,23.4,16.03,25.41.84.17,1.66.41,2.49.6,7.13,1.39,6.12,13.12-1.36,12.27-24.57-.53-49.15-.16-73.73.12-4.04.05-7.96-.3-8.46-5.23-.43-4.26,1.98-6.75,6.28-7.95,10.43-2.92,14.44-7.74,15.03-18.57.47-8.68.28-17.41.28-26.11.02-41.83.02-83.66,0-125.49-.15-13.28-3.21-17.46-15.98-21.35-3.81-1.16-6.01-3.4-5.63-7.36.36-5.29,5-6.32,9.55-5.99,15.54,0,31.07,0,46.61,0,0,.31,0,.62,0,.93Zm8.95,65.06h-.14c0,11.78.08,23.57-.04,35.35-.05,5.24,2.24,8.84,7.29,9.56,7.04,1.01,14.27,2.18,21.27,1.58,29.19-1.49,36.18-33.5,33.37-57.7-2.18-27.25-20.98-42.62-48.14-38.96-10.65,1.43-13.48,4.52-13.58,15.34-.11,11.61-.02,23.22-.02,34.84Z"/>
      <path class="cls-1" d="m493.45,214.01c29.57-28.07,71.81-29.9,90.23,10.36,30.58,60.95-20.18,151.86-89.73,110.39-.84,18.81-.59,37.76-.05,56.59.67,6.8,3.83,11.62,10.86,13.12,4.1.87,5.83,3.47,5.34,7.39-.49,3.92-3.41,4.5-6.82,4.49-18.95-.05-37.9-.05-56.85.06-7.99,1.04-9.84-10.05-2.4-12.13,8.01-2.26,10.96-8.13,11.37-15.76.49-50.01-.09-100.04.23-150.06.35-22.41-13.52-15.43-14.09-26.15.19-2.01,2.37-4.81,4.31-5.51,13.46-4.87,27.06-9.37,40.67-13.81,4.38-1.43,6.8.53,6.91,5.32.12,5.03.03,10.07.03,15.71Zm59.21,58.92c.47-15.93-1.17-32.73-11.92-45.46-13.41-16.67-44.92-10.58-47.23,11.7-.12,21.17-.31,42.35.2,63.51.11,4.63,1.91,9.91,4.62,13.67,12.24,16.98,35.78,15.14,46.17-3.31,7.01-12.45,8.39-26.16,8.18-40.11Z"/>
      <path class="cls-1" d="m832.82,267.99c-11.78,0-23.57.11-35.35-.07-3.48-.05-4.89.92-4.8,4.59-1.18,41.31,41.92,67.61,71.54,32.47,2.19-2.95,4.67-5.27,8.57-2.94,3.97,2.37,3.5,5.87,1.92,9.42-5.2,11.69-13.9,20.12-24.89,26.32-29.01,16.36-69.25,5.97-85.58-22.04-32.66-50.46,7.81-143.09,74.44-120.48,28.18,9,39.53,36.81,38.26,64.65-.12,5.8-2.32,7.92-8.24,7.95-11.95.08-23.91.02-35.86.02v.09Zm-39.46-16.12c14.71,0,28.84.07,42.97-.13,1.13-.02,3.18-1.83,3.22-2.86.68-15.4-2.05-44.62-23.18-43-19.53,2.53-23.28,29.36-23.02,46Z"/>
      <path class="cls-1" d="m733.95,220.51c0,30.57-.04,61.14.05,91.71-.66,7.56,2.08,15.01,8.6,19.07,3.28,2.1,5.43,4.11,4.78,8.04-.74,4.45-4.33,4.12-7.59,4.12-17.08.04-34.16.04-51.24.11-3.13.01-5.98-.41-6.7-4.05-.73-3.69.83-6.36,4.36-7.68,5.8-2.19,8.39-6.71,9.19-12.5,1.39-51.68.11-103.49.62-155.22.18-20.69-13.56-16.7-14.03-26,.42-2.09,2.91-4.57,5.07-5.38,12.43-4.67,25.05-8.81,37.55-13.3,5.96-2.14,9.3-.06,9.3,6.29.02,31.6,0,63.19,0,94.79h.03Z"/>
      <path class="cls-1" d="m889.97,317.45c0-6.66.06-13.32-.03-19.98-.04-3.06.61-5.45,4.14-5.94,3.5-.48,6.03.72,7.18,4.22,4.11,18.29,14.99,35.38,35.57,35.87,22.75,2.72,31.56-28.61,13.82-39.73-7-4.36-15.05-7.05-22.65-10.44-23.28-7.51-39.67-24.15-36.81-49.65,1.63-32.98,40.82-49.11,68.68-36.34,4.87,2.03,8.5,2.14,12.33-2.05,1.37-1.49,4.83-2.23,6.81-1.61,1.48.46,2.94,3.62,2.99,5.61.29,11.43.09,22.88.19,34.32.76,7.95-8.65,8.86-11.17,1.83-6.06-13.43-12.9-28.26-29.94-28.23-21.47-1.6-28.25,27.43-10.19,36.78,10.25,4.89,21.47,7.85,31.88,12.47,55.91,25.98,22.46,111.63-47.2,86.13-5.74-2.14-11.16-4.16-16.36,1.65-1.19,1.34-4.98,1.36-7.03.57-1.32-.5-2.22-3.57-2.3-5.53-.28-6.65-.11-13.31-.11-19.97.06,0,.12,0,.19,0Z"/>
      <path class="cls-1" d="m419.54,257.75c0,18.43.03,36.87-.01,55.3-.09,22.48,13.26,13.67,13.45,26.92,0,1.15-3.66,3.31-5.69,3.34-17.75.27-35.5.14-53.25.18-3.15,0-6.52-.54-6.47-4.1.04-2.57,1.7-6.65,3.64-7.37,7.9-2.95,9.92-9.14,9.98-16.24.22-26.96.2-53.93.09-80.9,0-15.32-11.94-13.81-12.2-22.39.3-2.01,3.07-4.37,5.29-5.26,11.85-4.75,23.91-8.98,35.82-13.59,6.46-2.5,9.26-.75,9.27,6.24,0,19.29,0,38.57,0,57.86h.08Z"/>
      <path class="cls-1" d="m656.06,257.14c0,18.08.01,36.17-.02,54.25-.53,25.12,13.56,15.38,12.94,28.79-.08,1.2-3.46,3.09-5.36,3.12-17.57.26-35.14.14-52.72.24-7.46,1.03-9.17-9.63-2.35-11.67,6.93-2.19,9.33-7.42,9.96-13.98.99-26.74-.05-53.57.37-80.34.2-19.37-12.92-15.34-13.47-25.19.26-2,2.94-4.46,5.12-5.33,12.01-4.81,24.22-9.13,36.3-13.77,6.12-2.35,9.2-.52,9.22,6.03.05,19.28.02,38.56.01,57.84Z"/>
      <path class="cls-1" d="m401.62,178.43c-31.57,0-30.04-46.42-.19-46.93,29.43.88,30.81,45.99.19,46.93Z"/>
      <path class="cls-1" d="m636.43,178.42c-31.09-.48-29.43-46.12.25-46.79,29.78.92,29.97,46.31-.25,46.79Z"/>
    </g>
  </g>
</svg>
